HIERARCHY
ROOT Hips
{
	OFFSET 0.00000 0.00000 0.00000
	CHANNELS 6 Xposition Yposition Zposition Yrotation Zrotation Xrotation 
	JOINT Lumbar
	{
		OFFSET 0 0 0
		CHANNELS 3 Zrotation Xrotation Yrotation
		JOINT Neck
		{
			OFFSET 0.00 0.2701 0.00
			CHANNELS 3 Zrotation Xrotation Yrotation
			End Site
			{
				OFFSET 0.00 0.1379 0.00
			}
		}
		JOINT RightShoulder
		{
			OFFSET 0.0119 0.2289 0.1181
			CHANNELS 3 Zrotation Xrotation Yrotation
			JOINT RightElbow
			{
				OFFSET 0.00 -0.1475 0.00
				CHANNELS 2 Zrotation Yrotation
				JOINT RightWrist
				{
					OFFSET 0.00 -0.1605 0.00
					CHANNELS 2 Zrotation Xrotation
					End Site
					{
						OFFSET 0.0040 -0.1068 0.0006
					}
				}
			}
		}
		JOINT LeftShoulder
		{
			OFFSET 0.0119 0.2289 -0.1181
			CHANNELS 3 Zrotation Xrotation Yrotation
			JOINT LeftElbow
			{
				OFFSET 0.00 -0.1475 0.00
				CHANNELS 2 Zrotation Yrotation
				JOINT LeftWrist
				{
					OFFSET 0.00 -0.1605 0.00
					CHANNELS 2 Zrotation Xrotation
					End Site
					{
						OFFSET 0.0040 -0.1068 -0.0006
					}
				}
			}
		}
	}
	JOINT RightHip
	{
		OFFSET 0.0316 -0.0424 0.0458
		CHANNELS 3 Zrotation Xrotation Yrotation
		JOINT RightKnee
		{
			OFFSET 0.00 -0.2438 0.00
			CHANNELS 1 Zrotation
			JOINT RightAnkle
			{
				OFFSET 0.00 -0.2449 0.00
				CHANNELS 3 Zrotation Xrotation Yrotation
				End Site
				{
					OFFSET 0.1237 -0.0542 0.0051
				}
			}
		}
	}
	JOINT LeftHip
	{
		OFFSET 0.0316 -0.0424 -0.0458
		CHANNELS 3 Zrotation Xrotation Yrotation
		JOINT LeftKnee
		{
			OFFSET 0.00 -0.2438 0.00
			CHANNELS 1 Zrotation
			JOINT LeftAnkle
			{
				OFFSET 0.00 -0.2449 0.00
				CHANNELS 3 Zrotation Xrotation Yrotation
				End Site
				{
					OFFSET 0.1237 -0.0542 -0.0051
				}
			}
		}
	}
}
MOTION
Frames: 14
Frame Time: 0.02
-0.71566 0.57682 0.0251 241.80003 0 0.78455 6.08007 -1.8061 -2.7803 2.19758 15.27564 -3.48851 2.3148 -30.07961 -30.03348 67.61322 80.75043 8.41076 -3.41692 -5.7637 1.16988 28.14177 65.46509 -84.88704 -9.98553 4.08818 5.91816 8.27529 16.35246 -24.3016 10.03306 -7.36927 -9.93829 13.6633 2.71887 -17.06215 -25.52028 6.99712 3.37571 3.82716
-0.71356 0.57678 0.02059 243.32903 0 0.6279 4.94014 -1.42679 -2.63926 2.77138 14.54922 -3.60593 1.05022 -29.21446 -28.81313 67.99168 80.894 8.37408 -3.37539 -6.57762 1.4991 26.55087 66.80467 -83.92283 -10.76762 3.74335 6.14423 8.24664 15.0726 -23.79768 9.73589 -7.26321 -10.12967 14.5467 2.61436 -16.48683 -25.82989 6.92511 3.65469 4.54973
-0.71104 0.57672 0.01575 244.9516 0 0.42136 3.643 -0.96176 -2.68518 3.01775 13.80708 -3.42953 0.07433 -28.51695 -27.34212 68.25314 81.12929 8.3811 -3.29802 -7.09571 1.9514 24.63298 68.20525 -82.94992 -11.76469 3.42039 6.37234 8.20938 13.70364 -23.20158 9.40219 -7.12972 -10.31762 15.53827 2.49615 -15.56362 -26.34615 6.96199 4.08777 5.58965
-0.70873 0.57668 0.0111 246.52628 0 0.23691 2.4375 -0.53798 -2.63308 3.36111 13.08031 -3.38426 -0.98558 -27.74595 -25.98315 68.57918 81.31805 8.34506 -3.23731 -7.69119 2.35055 22.87028 69.57489 -81.98356 -12.6552 3.09179 6.5987 8.17683 12.38144 -22.65411 9.08534 -7.00803 -10.50658 16.47073 2.39058 -14.77963 -26.8144 6.95298 4.44553 6.46987
-0.70632 0.57663 0.00627 248.12727 0 0.05508 1.12959 -0.10169 -2.62821 3.93181 12.31088 -3.35971 -2.26037 -26.9516 -24.62271 68.88283 81.52604 8.40221 -3.17533 -8.53648 2.74114 21.07149 70.97966 -80.98685 -13.58329 2.73829 6.83486 8.13919 11.02335 -22.07938 8.76417 -6.88375 -10.69277 17.4526 2.25553 -14.07075 -27.0892 6.92269 4.82536 7.41798
-0.70403 0.57658 0.00174 249.69378 0 -0.14385 0.00442 0.32675 -2.57347 3.95201 11.62879 -3.21795 -3.01718 -26.24892 -23.21106 69.19654 81.71496 8.27916 -3.10844 -8.79294 3.17747 19.27489 72.31956 -80.06224 -14.48456 2.44496 7.04883 8.11026 9.72306 -21.54024 8.44529 -6.76059 -10.88516 18.35092 2.18005 -13.12918 -27.81206 6.96493 5.19562 8.29758
-0.70219 0.57653 -0.00194 251.14679 0 -0.38038 -0.58039 0.72448 -2.32184 2.4841 11.20292 -2.82742 -2.36298 -25.77657 -21.69842 69.55325 81.84481 7.62517 -3.02222 -7.43365 3.71051 17.54639 73.43835 -79.29627 -15.25346 2.30626 7.20031 8.1135 8.5988 -21.10983 8.13295 -6.6453 -11.1044 19.03337 2.26579 -11.57294 -29.76475 7.18132 5.50492 8.92693
-0.70049 0.57648 -0.0053 252.55958 0 -0.63155 -0.97349 1.10821 -2.01691 0.4825 10.86521 -2.3276 -1.20481 -25.39001 -20.14766 69.92312 81.94999 6.79198 -2.93398 -5.50325 4.28435 15.83602 74.49066 -78.6137 -15.98885 2.22946 7.32959 8.12471 7.53924 -20.72193 7.82624 -6.53318 -11.32935 19.61878 2.41309 -9.805 -32.15068 7.46801 5.79829 9.47196
-0.69873 0.57644 -0.00877 253.98857 0 -0.87492 -1.44942 1.49111 -1.74631 -1.24752 10.4804 -1.87367 -0.30719 -24.95312 -18.62938 70.2914 82.056 6.05736 -2.85695 -3.8707 4.83926 14.12962 75.58861 -77.92256 -16.74331 2.1292 7.46728 8.12905 6.45331 -20.32008 7.52288 -6.42162 -11.54645 20.22232 2.53726 -8.17157 -34.31441 7.7227 6.09754 10.0461
-0.69696 0.57639 -0.01238 255.43369 0 -1.12659 -1.94698 1.91013 -1.43993 -3.11919 10.12238 -1.42333 0.73608 -24.56641 -17.03902 70.63606 82.20781 5.25592 -2.73849 -2.05908 5.40195 12.35868 76.62691 -77.10534 -17.48932 2.00965 7.60813 8.14799 5.34636 -19.88573 7.19283 -6.3006 -11.78477 20.9435 2.64193 -6.36481 -36.60466 7.9801 6.40982 10.6751
-0.69523 0.57634 -0.01563 256.82935 0 -1.36163 -2.35473 2.24606 -1.19239 -4.80846 9.73252 -0.9462 1.58838 -24.0976 -15.59202 71.03632 82.25864 4.54546 -2.70227 -0.49777 5.95428 10.73257 77.76915 -76.57281 -18.24186 1.94497 7.74223 8.137 4.30596 -19.53871 6.9207 -6.20038 -11.98124 21.38998 2.80018 -4.87272 -38.71586 8.24867 6.68677 11.15954
-0.69361 0.57626 -0.01786 258.13935 0 -1.56443 -2.5355 2.38386 -1.12575 -5.94836 9.2103 -0.39937 1.82362 -23.34671 -14.56265 71.57245 82.02265 4.17213 -2.92909 0.31114 6.48614 9.49026 79.2436 -76.78863 -19.02285 2.01448 7.82021 8.05391 3.3836 -19.35355 6.80368 -6.15668 -12.04963 21.14581 3.10546 -4.30836 -40.35987 8.5161 6.89104 11.31967
-0.69201 0.57617 -0.01973 259.39164 0 -1.74585 -2.63684 2.43235 -1.11866 -6.8697 8.65769 0.16437 1.844 -22.51697 -13.67917 72.16863 81.68727 3.88746 -3.23296 0.83309 7.00207 8.39821 80.81849 -77.29108 -19.81054 2.13731 7.90107 7.93768 2.53731 -19.26958 6.74594 -6.13345 -12.07553 20.62026 3.45863 -4.06845 -41.78242 8.79354 7.05638 11.32799
-0.69037 0.57608 -0.02181 260.64444 0 -1.92637 -2.79025 2.5037 -1.07934 -7.83269 8.13371 0.70497 1.93629 -21.74368 -12.72029 72.74562 81.40709 3.53575 -3.47765 1.43246 7.51291 7.24506 82.32895 -77.67424 -20.59207 2.23717 8.00757 7.82908 1.68746 -19.18306 6.6631 -6.10175 -12.1311 20.19336 3.78237 -3.67709 -43.21851 9.07689 7.22404 11.36548
